<svg width="18" height="18" viewBox="0 0 18 18" fill="none" xmlns="http://www.w3.org/2000/svg">
<path d="M9.75 0C10.9905 0 12 1.0095 12 2.25V4.5C12 4.914 11.6648 5.25 11.25 5.25C10.8352 5.25 10.5 4.914 10.5 4.5V2.25C10.5 1.83675 10.164 1.5 9.75 1.5H6.25684L6.47852 1.57422C7.09201 1.78722 7.5 2.3595 7.5 3V14.25H9.75C10.164 14.25 10.5 13.9132 10.5 13.5V10.5C10.5 10.086 10.8352 9.75 11.25 9.75C11.6648 9.75 12 10.086 12 10.5V13.5C12 14.7405 10.9905 15.75 9.75 15.75H7.5V16.5C7.5 17.3272 6.82725 18 6 18C5.84034 18 5.68807 17.9779 5.53516 17.9307L1.02148 16.4258C0.407987 16.2128 0 15.6405 0 15V1.5C0 0.67275 0.67275 0 1.5 0C1.53675 0 1.57142 0.0136016 1.60742 0.0166016C1.63511 0.0128251 1.65905 0 1.6875 0H9.75ZM13.9629 3.80664C14.2433 3.69053 14.5658 3.75529 14.7803 3.96973L17.7803 6.96973C18.0735 7.26298 18.0735 7.73702 17.7803 8.03027L14.7803 11.0303C14.5658 11.2447 14.2433 11.3095 13.9629 11.1934C13.6831 11.0771 13.5 10.803 13.5 10.5V8.25H10.5C10.086 8.25 9.75 7.914 9.75 7.5C9.75 7.086 10.086 6.75 10.5 6.75H13.5V4.5C13.5 4.197 13.6831 3.92289 13.9629 3.80664Z" fill="url(#paint0_linear_2439_1492)"/>
<defs>
<linearGradient id="paint0_linear_2439_1492" x1="1.1" y1="-11.2086" x2="13.7111" y2="11.9019" gradientUnits="userSpaceOnUse">
<stop stop-color="#3847BB"/>
<stop offset="1" stop-color="#3847BB"/>
</linearGradient>
</defs>
</svg>
