<svg width="18" height="18" viewBox="0 0 18 18" fill="none" xmlns="http://www.w3.org/2000/svg">
  <path d="M9 9C10.6569 9 12 7.65685 12 6C12 4.34315 10.6569 3 9 3C7.34315 3 6 4.34315 6 6C6 7.65685 7.34315 9 9 9Z" fill="url(#paint0_linear)"/>
  <path d="M3 15C3 12.7909 4.79086 11 7 11H11C13.2091 11 15 12.7909 15 15C15 15.4142 14.6642 15.75 14.25 15.75C13.8358 15.75 13.5 15.4142 13.5 15C13.5 13.6193 12.3807 12.5 11 12.5H7C5.61929 12.5 4.5 13.6193 4.5 15C4.5 15.4142 4.16421 15.75 3.75 15.75C3.33579 15.75 3 15.4142 3 15Z" fill="url(#paint0_linear)"/>
  <path d="M15 4.5C15 4.08579 15.3358 3.75 15.75 3.75H17.25C17.6642 3.75 18 4.08579 18 4.5C18 4.91421 17.6642 5.25 17.25 5.25H15.75V6.75C15.75 7.16421 15.4142 7.5 15 7.5C14.5858 7.5 14.25 7.16421 14.25 6.75V5.25H12.75C12.3358 5.25 12 4.91421 12 4.5C12 4.08579 12.3358 3.75 12.75 3.75H14.25V2.25C14.25 1.83579 14.5858 1.5 15 1.5C15.4142 1.5 15.75 1.83579 15.75 2.25V3.75H17.25C17.6642 3.75 18 4.08579 18 4.5Z" fill="url(#paint0_linear)"/>
  <defs>
    <linearGradient id="paint0_linear" x1="2" y1="0" x2="16" y2="18" gradientUnits="userSpaceOnUse">
      <stop stop-color="#3847BB"/>
      <stop offset="1" stop-color="#3847BB"/>
    </linearGradient>
  </defs>
</svg>
