<svg width="22" height="21" viewBox="0 0 22 21" fill="none" xmlns="http://www.w3.org/2000/svg">
<path d="M19.5459 17.8591C19.5457 18.8152 18.7705 19.5906 17.8145 19.5906H3.96289C3.00681 19.5906 2.23163 18.8152 2.23145 17.8591V7.90308H19.5459V17.8591ZM5.69434 14.8289C5.21616 14.8289 4.82929 15.216 4.8291 15.6941V16.5603C4.82917 17.0385 5.21609 17.4255 5.69434 17.4255H6.56055C7.03864 17.4253 7.42571 17.0384 7.42578 16.5603V15.6941C7.42559 15.2161 7.03857 14.8291 6.56055 14.8289H5.69434ZM10.4561 14.8289C9.97785 14.8289 9.59003 15.2159 9.58984 15.6941V16.5603C9.58991 17.0386 9.97777 17.4255 10.4561 17.4255H11.3213C11.7996 17.4255 12.1874 17.0386 12.1875 16.5603V15.6941C12.1873 15.2159 11.7995 14.8289 11.3213 14.8289H10.4561ZM15.2178 14.8289C14.7396 14.8289 14.3517 15.2159 14.3516 15.6941V16.5603C14.3516 17.0386 14.7395 17.4255 15.2178 17.4255H16.083C16.5613 17.4255 16.9492 17.0386 16.9492 16.5603V15.6941C16.949 15.2159 16.5612 14.8289 16.083 14.8289H15.2178ZM5.69434 10.0671C5.21605 10.0672 4.8291 10.4551 4.8291 10.9333V11.7986C4.8291 12.2769 5.21605 12.6648 5.69434 12.6648H6.56055C7.03869 12.6646 7.42578 12.2768 7.42578 11.7986V10.9333C7.42578 10.4552 7.03869 10.0674 6.56055 10.0671H5.69434ZM10.4561 10.0671C9.97773 10.0671 9.58984 10.455 9.58984 10.9333V11.7986C9.58984 12.2769 9.97773 12.6648 10.4561 12.6648H11.3213C11.7996 12.6648 12.1875 12.2769 12.1875 11.7986V10.9333C12.1875 10.455 11.7996 10.0671 11.3213 10.0671H10.4561ZM15.2178 10.0671C14.7395 10.0671 14.3516 10.455 14.3516 10.9333V11.7986C14.3516 12.2769 14.7395 12.6648 15.2178 12.6648H16.083C16.5613 12.6648 16.9492 12.2769 16.9492 11.7986V10.9333C16.9492 10.455 16.5613 10.0671 16.083 10.0671H15.2178ZM4.39551 2.70874V3.14136C4.3956 4.09608 5.17225 4.87263 6.12695 4.8728C7.08181 4.8728 7.8583 4.09619 7.8584 3.14136V2.70874H13.9189V3.14136C13.919 4.09618 14.6956 4.87278 15.6504 4.8728C16.6052 4.8728 17.3817 4.09619 17.3818 3.14136V2.70874H17.8145C18.7707 2.70874 19.5459 3.48397 19.5459 4.44019V7.03687H2.23145V4.44019C2.23145 3.48399 3.0067 2.70876 3.96289 2.70874H4.39551ZM6.12793 1.40991C6.60576 1.41017 6.99302 1.79729 6.99316 2.27515V3.14136C6.99305 3.61924 6.60578 4.00634 6.12793 4.00659C5.64986 4.00659 5.26183 3.6194 5.26172 3.14136V2.27515C5.26186 1.79713 5.64988 1.40991 6.12793 1.40991ZM15.6504 1.40991C16.1284 1.40991 16.5165 1.79713 16.5166 2.27515V3.14136C16.5165 3.6194 16.1285 4.00659 15.6504 4.00659C15.1723 4.00658 14.7853 3.61939 14.7852 3.14136V2.27515C14.7853 1.79714 15.1724 1.40992 15.6504 1.40991Z" fill="url(#paint0_linear_2541_235)"/>
<defs>
<linearGradient id="paint0_linear_2541_235" x1="3.28955" y1="-9.91118" x2="16.357" y2="12.8946" gradientUnits="userSpaceOnUse">
<stop stop-color="#3847BB"/>
<stop offset="1" stop-color="#3847BB"/>
</linearGradient>
</defs>
</svg>
