<svg width="22" height="21" viewBox="0 0 22 21" fill="none" xmlns="http://www.w3.org/2000/svg">
<path d="M6.99296 2.27541C6.99296 1.79727 6.60535 1.40967 6.12722 1.40967C5.64908 1.40967 5.26147 1.79727 5.26147 2.27541V3.14115C5.26147 3.61928 5.64908 4.00689 6.12722 4.00689C6.60535 4.00689 6.99296 3.61928 6.99296 3.14115V2.27541Z" fill="#BABABA"/>
<path d="M16.5161 2.27541C16.5161 1.79727 16.1285 1.40967 15.6504 1.40967C15.1723 1.40967 14.7847 1.79727 14.7847 2.27541V3.14115C14.7847 3.61928 15.1723 4.00689 15.6504 4.00689C16.1285 4.00689 16.5161 3.61928 16.5161 3.14115V2.27541Z" fill="#BABABA"/>
<path d="M2.23145 7.90271V17.8587C2.23145 18.8149 3.00672 19.5902 3.96293 19.5902H17.8148C18.771 19.5902 19.5463 18.8149 19.5463 17.8587V7.90271H2.23145ZM7.42589 16.5601C7.42589 17.0384 7.03847 17.4259 6.56015 17.4259H5.69441C5.21609 17.4259 4.82867 17.0384 4.82867 16.5601V15.6944C4.82867 15.2161 5.21609 14.8286 5.69441 14.8286H6.56015C7.03847 14.8286 7.42589 15.2161 7.42589 15.6944V16.5601ZM7.42589 11.7985C7.42589 12.2769 7.03847 12.6643 6.56015 12.6643H5.69441C5.21609 12.6643 4.82867 12.2769 4.82867 11.7985V10.9328C4.82867 10.4545 5.21609 10.0671 5.69441 10.0671H6.56015C7.03847 10.0671 7.42589 10.4545 7.42589 10.9328V11.7985ZM12.1875 16.5601C12.1875 17.0384 11.8 17.4259 11.3217 17.4259H10.456C9.97766 17.4259 9.59024 17.0384 9.59024 16.5601V15.6944C9.59024 15.2161 9.97766 14.8286 10.456 14.8286H11.3217C11.8 14.8286 12.1875 15.2161 12.1875 15.6944V16.5601ZM12.1875 11.7985C12.1875 12.2769 11.8 12.6643 11.3217 12.6643H10.456C9.97766 12.6643 9.59024 12.2769 9.59024 11.7985V10.9328C9.59024 10.4545 9.97766 10.0671 10.456 10.0671H11.3217C11.8 10.0671 12.1875 10.4545 12.1875 10.9328V11.7985ZM16.949 16.5601C16.949 17.0384 16.5616 17.4259 16.0833 17.4259H15.2176C14.7392 17.4259 14.3518 17.0384 14.3518 16.5601V15.6944C14.3518 15.2161 14.7392 14.8286 15.2176 14.8286H16.0833C16.5616 14.8286 16.949 15.2161 16.949 15.6944V16.5601ZM16.949 11.7985C16.949 12.2769 16.5616 12.6643 16.0833 12.6643H15.2176C14.7392 12.6643 14.3518 12.2769 14.3518 11.7985V10.9328C14.3518 10.4545 14.7392 10.0671 15.2176 10.0671H16.0833C16.5616 10.0671 16.949 10.4545 16.949 10.9328V11.7985Z" fill="#BABABA"/>
<path d="M19.5463 7.03696V4.43973C19.5463 3.48352 18.771 2.70825 17.8148 2.70825H17.3819V3.14112C17.3819 4.09603 16.6053 4.8726 15.6504 4.8726C14.6955 4.8726 13.9189 4.09603 13.9189 3.14112V2.70825H7.85876V3.14112C7.85876 4.09603 7.08219 4.8726 6.12728 4.8726C5.17237 4.8726 4.3958 4.09603 4.3958 3.14112V2.70825H3.96293C3.00672 2.70825 2.23145 3.48352 2.23145 4.43973V7.03696H19.5463Z" fill="#BABABA"/>
</svg>
