<svg width="19" height="19" viewBox="0 0 19 19" fill="none" xmlns="http://www.w3.org/2000/svg">
<path d="M18.6001 8.99931V17.9993C18.6001 18.1982 18.5211 18.389 18.3804 18.5296C18.2398 18.6703 18.049 18.7493 17.8501 18.7493H12.6001C12.4012 18.7493 12.2104 18.6703 12.0698 18.5296C11.9291 18.389 11.8501 18.1982 11.8501 17.9993V13.1243C11.8501 13.0248 11.8106 12.9295 11.7403 12.8591C11.6699 12.7888 11.5746 12.7493 11.4751 12.7493H7.7251C7.62564 12.7493 7.53026 12.7888 7.45993 12.8591C7.38961 12.9295 7.3501 13.0248 7.3501 13.1243V17.9993C7.3501 18.1982 7.27108 18.389 7.13043 18.5296C6.98978 18.6703 6.79901 18.7493 6.6001 18.7493H1.3501C1.15119 18.7493 0.96042 18.6703 0.819768 18.5296C0.679115 18.389 0.600098 18.1982 0.600098 17.9993V8.99931C0.600282 8.60155 0.758438 8.22016 1.03979 7.93899L8.53979 0.438992C8.82106 0.1579 9.20244 0 9.6001 0C9.99775 0 10.3791 0.1579 10.6604 0.438992L18.1604 7.93899C18.4418 8.22016 18.5999 8.60155 18.6001 8.99931Z" fill="#8D949A"/>
</svg>
