<svg width="20" height="20" viewBox="0 0 20 20" fill="none" xmlns="http://www.w3.org/2000/svg">
    <path d="M3.33333 4.16667C3.33333 3.70643 3.70643 3.33333 4.16667 3.33333H14.1667C14.627 3.33333 15 3.70643 15 4.16667V5.83333H16.6667C17.5871 5.83333 18.3333 6.57958 18.3333 7.5V15.8333C18.3333 16.7538 17.5871 17.5 16.6667 17.5H4.16667C3.70643 17.5 3.33333 17.1269 3.33333 16.6667V4.16667ZM14.1667 5V4.16667H4.16667V5H14.1667ZM16.6667 7.5H4.16667V16.6667H16.6667V7.5ZM13.3333 11.25C13.3333 10.7898 13.7064 10.4167 14.1667 10.4167H15.8333C16.2936 10.4167 16.6667 10.7898 16.6667 11.25C16.6667 11.7102 16.2936 12.0833 15.8333 12.0833H14.1667C13.7064 12.0833 13.3333 11.7102 13.3333 11.25Z" fill="#02107D"/>
</svg>
