<svg width="20" height="20" viewBox="0 0 20 20" fill="none" xmlns="http://www.w3.org/2000/svg">
<path d="M13.875 9.25C13.875 10.0658 13.6331 10.8634 13.1798 11.5417C12.7266 12.2201 12.0823 12.7488 11.3286 13.061C10.5748 13.3732 9.74543 13.4549 8.94526 13.2957C8.14508 13.1366 7.41008 12.7437 6.83319 12.1668C6.2563 11.5899 5.86343 10.8549 5.70427 10.0547C5.5451 9.25458 5.62679 8.42518 5.939 7.67143C6.25121 6.91769 6.77992 6.27345 7.45828 5.82019C8.13663 5.36693 8.93416 5.125 9.75 5.125C10.8436 5.12624 11.8921 5.56124 12.6654 6.33455C13.4388 7.10787 13.8738 8.15636 13.875 9.25ZM19.5 10C19.5 11.9284 18.9282 13.8134 17.8568 15.4168C16.7855 17.0202 15.2627 18.2699 13.4812 19.0078C11.6996 19.7458 9.73919 19.9389 7.84787 19.5627C5.95656 19.1865 4.21928 18.2579 2.85571 16.8943C1.49215 15.5307 0.563554 13.7934 0.187348 11.9021C-0.188858 10.0108 0.00422452 8.05042 0.742179 6.26884C1.48013 4.48726 2.72982 2.96451 4.33319 1.89317C5.93657 0.821828 7.82164 0.25 9.75 0.25C12.335 0.25273 14.8134 1.28084 16.6413 3.10872C18.4692 4.93661 19.4973 7.41498 19.5 10ZM18 10C17.9988 8.88956 17.7737 7.79077 17.3381 6.76934C16.9025 5.7479 16.2654 4.82481 15.4648 4.05525C14.6643 3.2857 13.7168 2.68549 12.679 2.29053C11.6411 1.89556 10.5343 1.71395 9.42469 1.75656C5.00907 1.92719 1.48782 5.605 1.5 10.0234C1.50424 12.0349 2.24609 13.9749 3.585 15.4759C4.13028 14.6851 4.82292 14.0068 5.625 13.4781C5.69339 13.433 5.77469 13.4114 5.85646 13.4169C5.93824 13.4223 6.01599 13.4543 6.07782 13.5081C7.09705 14.3897 8.3996 14.8749 9.74719 14.8749C11.0948 14.8749 12.3973 14.3897 13.4166 13.5081C13.4784 13.4543 13.5561 13.4223 13.6379 13.4169C13.7197 13.4114 13.801 13.433 13.8694 13.4781C14.6725 14.0065 15.3661 14.6848 15.9122 15.4759C17.2577 13.9694 18.001 12.0199 18 10Z" fill="#8D949A"/>
</svg>
