<svg width="20" height="19" viewBox="0 0 20 19" fill="none" xmlns="http://www.w3.org/2000/svg">
<path d="M19.7776 11.0963V7.90365L17.2689 7.59487C17.111 7.01934 16.8811 6.4667 16.5823 5.94393L18.1133 3.97572L15.8574 1.71976L13.8892 3.25079C13.3664 2.95196 12.8138 2.72212 12.2382 2.56422L11.9294 0.055542H8.73678L8.428 2.56422C7.85247 2.72212 7.29983 2.95196 6.77706 3.25079L4.80885 1.71976L2.55289 3.97572L4.08392 5.94393C3.78509 6.4667 3.55525 7.01934 3.39735 7.59487L0.888672 7.90365V11.0963L3.39735 11.4051C3.55525 11.9806 3.78509 12.5333 4.08392 13.056L2.55289 15.0239L4.80885 17.2802L6.77706 15.7492C7.29983 16.048 7.85247 16.2779 8.428 16.4358L8.73678 18.9444H11.9294L12.2382 16.4358C12.8138 16.2779 13.3664 16.048 13.8892 15.7492L15.8574 17.2802L18.1133 15.0239L16.5823 13.056C16.8811 12.5333 17.111 11.9806 17.2689 11.4051L19.7776 11.0963ZM10.3331 13.3737C8.19705 13.3737 6.45942 11.6361 6.45942 9.49999C6.45942 7.36392 8.19705 5.62629 10.3331 5.62629C12.4692 5.62629 14.2068 7.36392 14.2068 9.49999C14.2068 11.6361 12.4692 13.3737 10.3331 13.3737Z" fill="url(#paint0_linear_2539_299)"/>
<defs>
<linearGradient id="paint0_linear_2539_299" x1="2.04299" y1="-11.7066" x2="15.2769" y2="12.5452" gradientUnits="userSpaceOnUse">
<stop stop-color="#FFE2E7"/>
<stop offset="1" stop-color="#FF607F"/>
</linearGradient>
</defs>
</svg>
