<svg width="20" height="19" viewBox="0 0 20 19" fill="none" xmlns="http://www.w3.org/2000/svg">
<path d="M18.8997 11.2044C19.401 11.1427 19.7776 10.7169 19.7776 10.2119V8.78811C19.7776 8.28307 19.401 7.8573 18.8997 7.7956L17.9338 7.67671C17.5315 7.62719 17.2051 7.33715 17.0613 6.95813C17.0078 6.8171 16.9498 6.6777 16.8873 6.54005C16.7197 6.17101 16.7447 5.73512 16.9936 5.41521L17.5713 4.67256C17.881 4.27447 17.8457 3.70809 17.4891 3.35146L16.4816 2.34402C16.125 1.98739 15.5586 1.95215 15.1605 2.26181L14.4179 2.83951C14.098 3.08836 13.6621 3.11336 13.2931 2.94579C13.1554 2.88328 13.016 2.82527 12.875 2.77178C12.496 2.62805 12.2059 2.3016 12.1564 1.89928L12.0375 0.933376C11.9758 0.432118 11.55 0.055542 11.045 0.055542H9.62124C9.1162 0.055542 8.69043 0.432118 8.62873 0.933376L8.50984 1.89928C8.46032 2.3016 8.17028 2.62805 7.79126 2.77178C7.65023 2.82527 7.51083 2.88328 7.37318 2.94579C7.00414 3.11336 6.56825 3.08836 6.24834 2.83951L5.50569 2.26181C5.1076 1.95215 4.54122 1.98739 4.18459 2.34402L3.17715 3.35146C2.82052 3.70809 2.78528 4.27447 3.09494 4.67256L3.67264 5.41521C3.92149 5.73512 3.94649 6.17101 3.77892 6.54005C3.71641 6.6777 3.6584 6.8171 3.60491 6.95813C3.46118 7.33715 3.13473 7.62719 2.73241 7.67671L1.76651 7.7956C1.26525 7.8573 0.888672 8.28307 0.888672 8.78811V10.2119C0.888672 10.7169 1.26525 11.1427 1.76651 11.2044L2.73241 11.3233C3.13473 11.3728 3.46118 11.6628 3.60491 12.0418C3.65839 12.1829 3.7164 12.3222 3.77889 12.4599C3.94647 12.8289 3.92145 13.2649 3.67255 13.5848L3.09501 14.3271C2.78531 14.7251 2.8205 15.2915 3.1771 15.6482L4.18459 16.6559C4.54121 17.0125 5.10764 17.0478 5.50575 16.7381L6.24834 16.1605C6.56825 15.9116 7.00414 15.8866 7.37318 16.0542C7.51083 16.1167 7.65023 16.1747 7.79126 16.2282C8.17028 16.3719 8.46032 16.6984 8.50984 17.1007L8.62873 18.0666C8.69043 18.5679 9.1162 18.9444 9.62124 18.9444H11.045C11.55 18.9444 11.9758 18.5679 12.0375 18.0666L12.1564 17.1007C12.2059 16.6984 12.496 16.3719 12.875 16.2282C13.016 16.1747 13.1554 16.1167 13.2931 16.0542C13.6621 15.8866 14.098 15.9116 14.4179 16.1605L15.1605 16.7381C15.5586 17.0478 16.125 17.0125 16.4816 16.6559L17.4891 15.6482C17.8457 15.2915 17.8809 14.7251 17.5712 14.3271L16.9937 13.5848C16.7448 13.2649 16.7198 12.8289 16.8873 12.4599C16.9498 12.3222 17.0078 12.1829 17.0613 12.0418C17.2051 11.6628 17.5315 11.3728 17.9338 11.3233L18.8997 11.2044ZM10.3331 13.3737C8.19705 13.3737 6.45942 11.6361 6.45942 9.49999C6.45942 7.36392 8.19705 5.62629 10.3331 5.62629C12.4692 5.62629 14.2068 7.36392 14.2068 9.49999C14.2068 11.6361 12.4692 13.3737 10.3331 13.3737Z" fill="#BABABA"/>
</svg>
