<svg width="18" height="18" viewBox="0 0 18 18" fill="none" xmlns="http://www.w3.org/2000/svg">
<path d="M11.3877 10.2733C11.3877 11.5928 10.3195 12.661 9 12.661C7.68049 12.661 6.61232 11.5928 6.61232 10.2733C6.61232 8.95382 7.68049 7.88565 9 7.88565C10.3195 7.88565 11.3877 8.95382 11.3877 10.2733ZM16.2739 4.28934C17.2275 4.28934 18 5.06183 18 6.01542V10.5394V14.376C18 15.3924 17.1758 16.2167 16.1593 16.2167H1.84066C0.82423 16.2167 0 15.3924 0 14.376V10.5357V6.01542C0 5.06183 0.772485 4.28934 1.72608 4.28934H5.17823L5.34086 3.60187C5.5885 2.53739 6.5384 1.78339 7.63244 1.78339H10.3713C11.4653 1.78339 12.4152 2.53739 12.6628 3.60187L12.8218 4.28934H16.2739ZM3.6 6.78051C3.6 6.30372 3.21191 5.91563 2.73511 5.91563C2.25462 5.91563 1.86653 6.30372 1.86653 6.78051C1.86653 7.25731 2.25462 7.6454 2.73142 7.6454C3.21191 7.6491 3.6 7.261 3.6 6.78051ZM13.2579 10.2733C13.2579 7.92261 11.3507 6.01542 9 6.01542C6.64928 6.01542 4.74209 7.92261 4.74209 10.2733C4.74209 12.624 6.64928 14.5312 9 14.5312C11.3507 14.5312 13.2579 12.624 13.2579 10.2733Z" fill="url(#paint0_linear_2454_254)"/>
<defs>
<linearGradient id="paint0_linear_2454_254" x1="1.1" y1="-7.2042" x2="9.93199" y2="12.9805" gradientUnits="userSpaceOnUse">
<stop stop-color="#3847BB"/>
<stop offset="1" stop-color="#3847BB"/>
</linearGradient>
</defs>
</svg>
