<svg width="48" height="48" viewBox="0 0 48 48" fill="none" xmlns="http://www.w3.org/2000/svg">
<path fill-rule="evenodd" clip-rule="evenodd" d="M40.7479 31.57C38.0519 37.15 32.4739 41.132 25.8519 41.476C16.1839 41.978 7.92594 34.536 7.42594 24.866C6.92394 15.198 14.3659 6.94199 24.0339 6.43999C29.3739 6.16399 34.2799 8.30799 37.6899 11.914C38.2599 12.514 39.2099 12.54 39.8119 11.972C40.4119 11.402 40.4399 10.452 39.8699 9.85199C35.8779 5.63199 30.1299 3.11999 23.8799 3.44399C12.5579 4.03199 3.84194 13.7 4.42994 25.022C5.01594 36.344 14.6859 45.06 26.0079 44.472C33.7599 44.07 40.2919 39.41 43.4499 32.876C43.8099 32.13 43.4959 31.232 42.7519 30.872C42.0059 30.512 41.1079 30.824 40.7479 31.57Z" fill="#707390"/>
<path fill-rule="evenodd" clip-rule="evenodd" d="M38.7278 5.05599L38.3338 11.418L31.8718 11.018C31.0458 10.968 30.3338 11.596 30.2818 12.422C30.2318 13.25 30.8618 13.962 31.6878 14.012L39.6458 14.504C40.4738 14.556 41.1858 13.926 41.2358 13.1L41.7218 5.24199C41.7718 4.41599 41.1438 3.70199 40.3178 3.65199C39.4898 3.59999 38.7778 4.22999 38.7278 5.05599Z" fill="#707390"/>
<path d="M18.18 21.39V19.41H21.99V30H19.77V21.39H18.18ZM31.2312 21.06H26.2062V23.73C26.4362 23.46 26.7512 23.245 27.1512 23.085C27.5612 22.915 28.0112 22.83 28.5012 22.83C29.2312 22.83 29.8362 22.99 30.3162 23.31C30.8062 23.62 31.1662 24.04 31.3962 24.57C31.6362 25.09 31.7562 25.67 31.7562 26.31C31.7562 27.44 31.4362 28.345 30.7962 29.025C30.1662 29.705 29.2612 30.045 28.0812 30.045C27.3112 30.045 26.6412 29.91 26.0712 29.64C25.5012 29.36 25.0562 28.975 24.7362 28.485C24.4162 27.985 24.2412 27.405 24.2112 26.745H26.2662C26.3462 27.195 26.5312 27.555 26.8212 27.825C27.1112 28.085 27.4962 28.215 27.9762 28.215C28.5562 28.215 28.9862 28.04 29.2662 27.69C29.5562 27.33 29.7012 26.855 29.7012 26.265C29.7012 25.705 29.5512 25.27 29.2512 24.96C28.9512 24.65 28.5262 24.495 27.9762 24.495C27.5762 24.495 27.2362 24.585 26.9562 24.765C26.6762 24.935 26.4712 25.165 26.3412 25.455H24.2862V19.2H31.2312V21.06Z" fill="#707390"/>
</svg>
