<svg width="48" height="48" viewBox="0 0 48 48" fill="none" xmlns="http://www.w3.org/2000/svg">
<path fill-rule="evenodd" clip-rule="evenodd" d="M7.25206 31.57C9.94806 37.15 15.5261 41.132 22.1481 41.476C31.8161 41.978 40.0741 34.536 40.5741 24.866C41.0761 15.198 33.6341 6.94199 23.9661 6.43999C18.6261 6.16399 13.7201 8.30799 10.3101 11.914C9.74006 12.514 8.79006 12.54 8.18806 11.972C7.58806 11.402 7.56006 10.452 8.13006 9.85199C12.1221 5.63199 17.8701 3.11999 24.1201 3.44399C35.4421 4.03199 44.1581 13.7 43.5701 25.022C42.9841 36.344 33.3141 45.06 21.9921 44.472C14.2401 44.07 7.70806 39.41 4.55006 32.876C4.19006 32.13 4.50406 31.232 5.24806 30.872C5.99406 30.512 6.89206 30.824 7.25206 31.57Z" fill="#707390"/>
<path fill-rule="evenodd" clip-rule="evenodd" d="M9.27216 5.05599L9.66617 11.418L16.1282 11.018C16.9542 10.968 17.6662 11.596 17.7182 12.422C17.7682 13.25 17.1382 13.962 16.3122 14.012L8.35417 14.504C7.52617 14.556 6.81417 13.926 6.76416 13.1L6.27816 5.24199C6.22816 4.41599 6.85616 3.70199 7.68216 3.65199C8.51016 3.59999 9.22216 4.22999 9.27216 5.05599Z" fill="#707390"/>
<path d="M15.18 21.39V19.41H18.99V30H16.77V21.39H15.18ZM28.2312 21.06H23.2062V23.73C23.4362 23.46 23.7512 23.245 24.1512 23.085C24.5612 22.915 25.0112 22.83 25.5012 22.83C26.2312 22.83 26.8362 22.99 27.3162 23.31C27.8062 23.62 28.1662 24.04 28.3962 24.57C28.6362 25.09 28.7562 25.67 28.7562 26.31C28.7562 27.44 28.4362 28.345 27.7962 29.025C27.1662 29.705 26.2612 30.045 25.0812 30.045C24.3112 30.045 23.6412 29.91 23.0712 29.64C22.5012 29.36 22.0562 28.975 21.7362 28.485C21.4162 27.985 21.2412 27.405 21.2112 26.745H23.2662C23.3462 27.195 23.5312 27.555 23.8212 27.825C24.1112 28.085 24.4962 28.215 24.9762 28.215C25.5562 28.215 25.9862 28.04 26.2662 27.69C26.5562 27.33 26.7012 26.855 26.7012 26.265C26.7012 25.705 26.5512 25.27 26.2512 24.96C25.9512 24.65 25.5262 24.495 24.9762 24.495C24.5762 24.495 24.2362 24.585 23.9562 24.765C23.6762 24.935 23.4712 25.165 23.3412 25.455H21.2862V19.2H28.2312V21.06Z" fill="#707390"/>
</svg>
