<svg width="18" height="18" viewBox="0 0 18 18" fill="none" xmlns="http://www.w3.org/2000/svg">
<g clip-path="url(#clip0_2465_259)">
<path fill-rule="evenodd" clip-rule="evenodd" d="M15.943 7.42498C15.7708 5.8668 15.0372 4.42461 13.8792 3.3679C12.7212 2.31118 11.2181 1.71224 9.65071 1.68298C8.45329 1.69624 7.28412 2.04843 6.2786 2.69875C5.27308 3.34907 4.47235 4.27092 3.96914 5.35755C2.70197 5.74313 1.61237 6.56514 0.893666 7.67772C0.174965 8.79031 -0.126359 10.1215 0.0431625 11.4352C0.212684 12.7488 0.842088 13.9599 1.81969 14.8536C2.7973 15.7473 4.05989 16.2657 5.38342 16.317H13.2584C13.8922 16.3064 14.5177 16.1711 15.0991 15.9186C15.6806 15.6661 16.2065 15.3015 16.6469 14.8455C17.0873 14.3896 17.4335 13.8514 17.6657 13.2615C17.8979 12.6717 18.0115 12.0419 18.0001 11.4081C17.9973 10.6287 17.8093 9.86111 17.4517 9.16859C17.094 8.47607 16.5769 7.87845 15.943 7.42498ZM5.56214 8.88298L8.61442 5.82941C8.66505 5.77872 8.72518 5.7385 8.79136 5.71106C8.85755 5.68363 8.92849 5.6695 9.00014 5.6695C9.07178 5.6695 9.14273 5.68363 9.20891 5.71106C9.27509 5.7385 9.33522 5.77872 9.38585 5.82941L12.4381 8.88298C12.5141 8.95957 12.5658 9.05688 12.5866 9.16271C12.6075 9.26854 12.5967 9.37818 12.5555 9.47788C12.5143 9.57758 12.4446 9.66289 12.3551 9.72311C12.2656 9.78334 12.1603 9.81579 12.0524 9.81641H10.093V12.4084C10.093 12.6983 9.97785 12.9762 9.7729 13.1812C9.56795 13.3861 9.28998 13.5013 9.00014 13.5013C8.71029 13.5013 8.43232 13.3861 8.22737 13.1812C8.02242 12.9762 7.90728 12.6983 7.90728 12.4084V9.81641H5.94914C5.84116 9.81604 5.7357 9.78377 5.64601 9.72364C5.55632 9.66351 5.4864 9.57822 5.44505 9.47847C5.40369 9.37872 5.39274 9.26898 5.41358 9.16303C5.43441 9.05708 5.48609 8.95965 5.56214 8.88298Z" fill="url(#paint0_linear_2465_259)"/>
</g>
<defs>
<linearGradient id="paint0_linear_2465_259" x1="1.09731" y1="-7.4296" x2="10.1347" y2="12.9456" gradientUnits="userSpaceOnUse">
<stop stop-color="#3847BB"/>
<stop offset="1" stop-color="#3847BB"/>
</linearGradient>
<clipPath id="clip0_2465_259">
<rect width="18" height="18" fill="white"/>
</clipPath>
</defs>
</svg>
